<svg xmlns="http://www.w3.org/2000/svg" width="20" height="13" viewBox="0 0 20 13">
  <path fill-rule="evenodd" d="M87.7799032,5.08584687 L93.0762487,5.08584687 L93.0762487,3.56844548 L87.7799032,3.56844548 L87.7799032,5.08584687 L87.7799032,5.08584687 Z M89.0346103,8.39675174 C88.6971211,8.74013921 88.4842795,9.20533643 88.3972614,9.79234339 L92.5165106,9.79234339 C92.4730016,9.16589327 92.2589841,8.69257541 91.8803377,8.36658933 C91.4969876,8.04292343 91.0254435,7.88167053 90.4610017,7.88167053 C89.8495231,7.88167053 89.3720994,8.05336427 89.0346103,8.39675174 L89.0346103,8.39675174 L89.0346103,8.39675174 Z M92.6094083,6.35962877 C93.2479331,6.64037123 93.7735696,7.08584687 94.1874935,7.6937355 C94.564964,8.22969838 94.8072036,8.85150812 94.9177401,9.55800464 C94.9824158,9.97099768 95.008286,10.5696056 94.9977027,11.3480278 L88.3384654,11.3480278 C88.3784467,12.2517401 88.6935933,12.8863109 89.2956646,13.24942 C89.6601999,13.4756381 90.0988182,13.5893271 90.6138714,13.5893271 C91.1559707,13.5893271 91.5992927,13.4512761 91.9391337,13.1763341 C92.126105,13.0266821 92.2907339,12.8201856 92.4318444,12.5556845 L94.8718792,12.5556845 C94.8072036,13.0893271 94.5108717,13.6334107 93.9864112,14.1856148 C93.1679705,15.0614849 92.0214481,15.5 90.5480198,15.5 C89.3309422,15.5 88.2573269,15.1310905 87.3295256,14.3909513 C86.3970207,13.6519722 85.9337081,12.4477958 85.9337081,10.7819026 C85.9337081,9.21925754 86.3535117,8.02088167 87.1919429,7.18677494 C88.0327261,6.3549884 89.1204524,5.9361949 90.4598258,5.9361949 C91.2559239,5.9361949 91.9720595,6.07772622 92.6094083,6.35962877 L92.6094083,6.35962877 L92.6094083,6.35962877 Z M77.4635533,9.82482599 L77.4635533,13.0765661 L80.4645022,13.0765661 C81.0007219,13.0765661 81.4193496,13.0046404 81.7168575,12.861949 C82.2589568,12.5951276 82.5294185,12.0893271 82.5294185,11.3399072 C82.5294185,10.7041763 82.2683641,10.2691415 81.7427277,10.0313225 C81.4487476,9.89907193 81.0359995,9.82946636 80.5068353,9.82482599 L77.4635533,9.82482599 L77.4635533,9.82482599 Z M77.4635533,5.11716937 L77.4635533,7.80742459 L80.4692059,7.80742459 C81.0042497,7.80742459 81.4405162,7.70649652 81.7768294,7.50464037 C82.1107908,7.30278422 82.2789474,6.94547564 82.2789474,6.4350348 C82.2789474,5.86542923 82.0578744,5.49071926 81.6157283,5.30742459 C81.2323782,5.18097448 80.7455472,5.11716937 80.1540592,5.11716937 L77.4635533,5.11716937 L77.4635533,5.11716937 Z M84.1757071,4.29930394 C84.5531775,4.81786543 84.7425007,5.43735499 84.7425007,6.16009281 C84.7425007,6.9037123 84.5531775,7.50348028 84.1710034,7.95591647 C83.9569859,8.20881671 83.6430151,8.44083527 83.2279152,8.64965197 C83.8582085,8.87703016 84.3332804,9.23549884 84.6566585,9.7262181 C84.9765089,10.2157773 85.13761,10.812065 85.13761,11.512761 C85.13761,12.2354988 84.9541664,12.8839907 84.5861033,13.4570766 C84.353271,13.8364269 84.0616428,14.1566125 83.7112185,14.4164733 C83.3172852,14.7146172 82.8527966,14.9176334 82.315401,15.0290023 C81.7780053,15.1392111 81.1971006,15.1925754 80.5691591,15.1925754 L75,15.1925754 L75,3 L80.9724998,3 C82.4800298,3.02204176 83.5465896,3.45475638 84.1757071,4.29930394 L84.1757071,4.29930394 L84.1757071,4.29930394 Z" transform="translate(-75 -3)"/>
</svg>
