<svg xmlns="http://www.w3.org/2000/svg" width="20" height="20" viewBox="0 0 20 20">
  <path fill-rule="evenodd" d="M14.7727406,17.0827209 C14.6857176,16.5676995 14.2306109,14.0607913 13.1098959,10.9835969 C15.8675839,10.5426539 18.2560122,11.2987242 18.4324102,11.3563408 C18.0525666,13.7362573 16.6895984,15.7881122 14.7727406,17.0827209 L14.7727406,17.0827209 L14.7727406,17.0827209 Z M10.000588,18.5407725 C7.93320397,18.5407725 6.03751396,17.8058675 4.55929911,16.5829855 C4.6721938,16.6747016 4.75098489,16.7323182 4.75098489,16.7323182 C4.75098489,16.7323182 6.3879579,13.1624434 11.4529311,11.3974954 C11.4717469,11.3904404 11.4917387,11.385737 11.5105545,11.3798577 C12.7124125,14.5017344 13.2075028,17.1168205 13.3345093,17.863484 C12.3102252,18.2985478 11.1824543,18.5407725 10.000588,18.5407725 L10.000588,18.5407725 L10.000588,18.5407725 Z M1.45939907,9.99941208 C1.45939907,9.90887177 1.46410302,9.81950732 1.46645499,9.73014287 C1.61815723,9.73367041 5.83759628,9.8289141 10.2346093,8.5131401 C10.4792144,8.99171027 10.7132357,9.47968722 10.9272652,9.96531248 C10.8143706,9.99588453 10.7026518,10.0299841 10.5909331,10.0676113 C5.98224261,11.5562349 3.64438173,15.7022753 3.64438173,15.7022753 C3.64438173,15.7022753 3.64790968,15.7058028 3.64790968,15.7069787 C2.28729347,14.1936622 1.45939907,12.1935446 1.45939907,9.99941208 L1.45939907,9.99941208 L1.45939907,9.99941208 Z M6.35620627,2.27761773 C6.47027694,2.42930213 8.04962662,4.57052149 9.52784148,7.1973661 C5.42717704,8.28737727 1.86746634,8.24387089 1.64285294,8.24034335 C2.19674252,5.59468517 3.97365791,3.4017285 6.35620627,2.27761773 L6.35620627,2.27761773 L6.35620627,2.27761773 Z M7.95437173,1.70850726 C7.95437173,1.70968311 7.95319574,1.71085896 7.95319574,1.71085896 C7.95319574,1.71085896 7.94261187,1.71321065 7.92732404,1.71556235 C7.93673193,1.71321065 7.94496384,1.71203481 7.95437173,1.70850726 L7.95437173,1.70850726 L7.95437173,1.70850726 Z M15.6406186,3.59221589 C15.6194508,3.62396378 14.4034809,5.47592451 11.1789263,6.68352049 C9.71952725,4.00141102 8.11548186,1.8707743 7.98729935,1.70145217 C8.63291586,1.54506438 9.30675604,1.46040332 10.000588,1.46040332 C12.1620509,1.46040332 14.136532,2.2670351 15.6406186,3.59221589 L15.6406186,3.59221589 L15.6406186,3.59221589 Z M18.538249,9.91475101 C18.4147704,9.88770651 15.5241959,9.26568287 12.59011,9.63489917 C12.5289587,9.48909401 12.4689834,9.342113 12.4054801,9.19513199 C12.2279062,8.77653007 12.0362204,8.36263155 11.8374787,7.95578811 C15.2102076,6.57887001 16.5790557,4.59991769 16.5955195,4.57640073 C17.7926736,6.0309248 18.5182572,7.88876477 18.538249,9.91475101 L18.538249,9.91475101 L18.538249,9.91475101 Z M19.7977303,7.98753601 C19.6660199,7.34552296 19.4684542,6.71174084 19.2132651,6.10735493 C18.963956,5.5147275 18.6523196,4.94326533 18.2912918,4.4094303 C17.934968,3.88029867 17.5233727,3.38173908 17.071794,2.93021342 C16.6190392,2.47751191 16.121597,2.06714093 15.5912271,1.70968311 C15.0573293,1.3475219 14.4858,1.03827386 13.8931028,0.786642366 C13.2886459,0.53265918 12.6559652,0.335116703 12.0138766,0.204597566 C11.3553243,0.0693750367 10.6779561,0 10.000588,0 C9.32204386,0 8.64467572,0.0693750367 7.98612336,0.204597566 C7.34403481,0.335116703 6.71135415,0.53265918 6.10689716,0.786642366 C5.51420004,1.03827386 4.94267067,1.3475219 4.40759687,1.70968311 C3.87840301,2.06714093 3.38096078,2.47751191 2.92820603,2.93021342 C2.47662727,3.38173908 2.06620803,3.88029867 1.70870818,4.4094303 C1.34768037,4.94326533 1.03604398,5.5147275 0.786734874,6.10735493 C0.530369848,6.71174084 0.333980126,7.34552296 0.202269654,7.98753601 C0.0682072088,8.64483509 0,9.32212358 0,9.99941208 C0,10.6790523 0.0682072088,11.3563408 0.202269654,12.0148157 C0.333980126,12.6568287 0.530369848,13.289435 0.786734874,13.8926451 C1.03604398,14.4852725 1.34768037,15.0590864 1.70870818,15.5929214 C2.06620803,16.122053 2.47662727,16.6182609 2.92820603,17.0721383 C3.38096078,17.5236639 3.87840301,17.9328591 4.40759687,18.2914927 C4.94267067,18.6524781 5.51420004,18.962902 6.10689716,19.2133576 C6.71135415,19.4696925 7.34403481,19.6648833 7.98612336,19.7954024 C8.64467572,19.9318008 9.32204386,20 10.000588,20 C10.6779561,20 11.3553243,19.9318008 12.0138766,19.7954024 C12.6559652,19.6648833 13.2886459,19.4696925 13.8931028,19.2133576 C14.4858,18.962902 15.0573293,18.6524781 15.5912271,18.2914927 C16.121597,17.9328591 16.6190392,17.5236639 17.071794,17.0721383 C17.5233727,16.6182609 17.934968,16.122053 18.2912918,15.5929214 C18.6523196,15.0590864 18.963956,14.4852725 19.2132651,13.8926451 C19.4684542,13.289435 19.6660199,12.6568287 19.7977303,12.0148157 C19.9317928,11.3563408 20,10.6790523 20,9.99941208 C20,9.32212358 19.9317928,8.64483509 19.7977303,7.98753601 L19.7977303,7.98753601 L19.7977303,7.98753601 Z"/>
</svg>
