<svg xmlns="http://www.w3.org/2000/svg" viewBox="0 0 61.79 44.29"><defs><style>.cls-1{fill:#2962ff;}</style></defs><title>icon</title><g id="Capa_2" data-name="Capa 2"><g id="Capa_4" data-name="Capa 4"><polygon class="cls-1" points="48.72 17.5 51.63 11.66 57.47 8.75 51.63 5.83 48.72 0 45.8 5.83 39.97 8.75 45.8 11.66 48.72 17.5"/><polygon class="cls-1" points="44.29 26.13 45.69 23.33 48.5 21.93 45.69 20.52 44.29 17.72 42.89 20.52 40.08 21.93 42.89 23.33 44.29 26.13"/><polygon class="cls-1" points="57.58 21.93 58.98 19.12 61.79 17.72 58.98 16.32 57.58 13.51 56.18 16.32 53.37 17.72 56.18 19.12 57.58 21.93"/><path class="cls-1" d="M44.29,44.29,26,26A13.29,13.29,0,0,0,22.14,0H0L8.86,8.86H22.14a4.43,4.43,0,0,1,0,8.86H5.19L31.76,44.29Z"/></g></g></svg>